<?xml version="1.0" encoding="utf-8"?>
<!-- Generator: Adobe Illustrator 25.2.0, SVG Export Plug-In . SVG Version: 6.00 Build 0)  -->
<svg version="1.1" id="Outline" xmlns="http://www.w3.org/2000/svg" xmlns:xlink="http://www.w3.org/1999/xlink" x="0px" y="0px"
	 viewBox="0 0 512 512" style="enable-background:new 0 0 512 512;" xml:space="preserve">
<style type="text/css">
	.st0{fill:#F68B1E;}
</style>
<path class="st0" d="M122.3,391.8c0.5,0.7,1,1.5,1.5,2.2l0.5-4.3L122.3,391.8z"/>
<path class="st0" d="M378.4,394c0.5-0.7,1-1.5,1.5-2.2l-2-2.1L378.4,394z"/>
<path class="st0" d="M279.3,347c0,15.5-12.6,28.2-28.2,28.2c-15.5,0-28.2-12.6-28.2-28.2c0-6-4.9-10.9-10.9-10.9
	c-6,0-10.9,4.9-10.9,10.9c0,27.6,22.5,50.1,50.1,50.1s50.1-22.5,50.1-50.1c0-6-4.9-10.9-10.9-10.9S279.3,341,279.3,347z"/>
<path class="st0" d="M365.9,217.2c-12.3-7.1-26.3-12.1-40.5-14.4c-13.3-2.2-25.8-1.8-35,1c-5.8,1.8-9,7.9-7.3,13.7
	c1.8,5.8,7.9,9,13.7,7.3c10.4-3.2,35.4-1.8,58.2,11.4c1.7,1,3.6,1.5,5.5,1.5c3.8,0,7.5-2,9.5-5.5C372.9,227,371.1,220.3,365.9,217.2
	z"/>
<path class="st0" d="M219.1,217.5c1.8-5.8-1.5-11.9-7.3-13.7c-9.3-2.8-21.7-3.2-35-1c-14.2,2.3-28.3,7.3-40.5,14.4
	c-5.2,3-7,9.7-4,15c2,3.5,5.7,5.5,9.5,5.5c1.9,0,3.7-0.5,5.5-1.5c22.8-13.2,47.7-14.6,58.2-11.4
	C211.2,226.6,217.4,223.3,219.1,217.5z"/>
<path class="st0" d="M61.7,52.7c0.5,0.5,1.4,2.8,2.7,10.5c0.9,5.3,5.5,9.1,10.8,9.1c5.3,0,9.9-3.9,10.8-9.1
	c1.3-7.7,2.2-9.9,2.7-10.5c0.5-0.5,2.8-1.4,10.5-2.7c5.3-0.9,9.1-5.5,9.1-10.8s-3.9-9.9-9.1-10.8c-7.7-1.3-9.9-2.2-10.5-2.7
	c-0.5-0.5-1.4-2.8-2.7-10.5c-0.9-5.3-5.5-9.1-10.8-9.1c-5.3,0-9.9,3.9-10.8,9.1c-1.3,7.7-2.2,9.9-2.7,10.5
	c-0.5,0.5-2.8,1.4-10.5,2.7c-5.3,0.9-9.1,5.5-9.1,10.8s3.9,9.9,9.1,10.8C58.9,51.3,61.1,52.2,61.7,52.7z"/>
<ellipse transform="matrix(0.9465 -0.3227 0.3227 0.9465 11.6577 132.2519)" class="st0" cx="404.7" cy="31" rx="13.4" ry="13.4"/>
<path class="st0" d="M494,95.5c-3.5-0.6-5.1-1-5.9-1.3c-0.3-0.8-0.7-2.4-1.3-5.9c-0.9-5.3-5.5-9.1-10.8-9.1c-5.3,0-9.9,3.9-10.8,9.1
	c-0.6,3.5-1,5.1-1.3,5.9c-0.8,0.3-2.4,0.7-5.9,1.3c-5.3,0.9-9.1,5.5-9.1,10.8c0,5.3,3.9,9.9,9.1,10.8c3.5,0.6,5.1,1,5.9,1.3
	c0.3,0.8,0.7,2.4,1.3,5.9c0.9,5.3,5.5,9.1,10.8,9.1c5.3,0,9.9-3.9,10.8-9.1c0.6-3.5,1-5.1,1.3-5.9c0.8-0.3,2.4-0.7,5.9-1.3
	c5.3-0.9,9.1-5.5,9.1-10.8C503.1,101,499.2,96.4,494,95.5z"/>
<circle class="st0" cx="23.5" cy="114.8" r="13.4"/>
<path class="st0" d="M470.2,294.6c-13.9-10.2-32.8-9.6-46,1.5l-68.1,57.1c-7.4-13.4-21.6-22.5-37.9-22.5h-49.9
	c-9.1,0-17.4-4.6-22.2-12.3c-9.3-14.9-25.4-23.8-43-23.8h-63.5c-8.2,0-16.2,2.2-23.2,6.5l-99.7,60.6c-5.8,3.5-7.6,11.1-4.1,16.9
	c3.5,5.8,11.1,7.6,16.9,4.1l12.2-7.4l87.5-53.2c3.2-1.9,6.8-2.9,10.5-2.9H203c9.1,0,17.4,4.6,22.2,12.3c9.3,14.9,25.4,23.8,43,23.8
	h49.9c10.3,0,18.7,8.4,18.7,18.7c0,10.3-8.4,18.7-18.7,18.7h-98.6c-6.1,0-11.1,4.4-12.1,10.2c-0.1,0.7-0.2,1.3-0.2,2
	c0,4.8,2.8,8.9,6.8,11c1.7,0.8,3.5,1.3,5.5,1.3h98.6c21.4,0,39.2-15.6,42.6-36.1c1.1-0.8,2.2-1.6,3.2-2.5l76-63.8
	c4.5-3.8,11-4,15.7-0.5c5.5,4.1,6.8,11.7,3,17.3l-55.5,82c-6,8.8-14.1,16.3-23.3,21.6L318.9,470c-10.6,6-22.6,9.2-34.7,9.2h-92.1
	c-10,0-19.6-3.6-27.2-10l-9.2-7.9c-4.3-3.7-9.2-6.4-14.4-8.2c-12.2-4.2-25.9-3-37.4,3.8l-19.7,11.7c-5.8,3.5-7.7,11-4.3,16.8
	c3.5,5.8,11,7.7,16.8,4.3l19.7-11.7c7.4-4.4,16.8-3.6,23.4,2l9.2,7.9c12,10.2,27.3,15.9,43.1,15.9h92.1c16.4,0,32.6-4.3,46.9-12.4
	l60.9-34.8c12.5-7.1,23.4-17.2,31.5-29.2l55.5-82C490.2,328.8,486.4,306.5,470.2,294.6z"/>
<path class="st0" d="M334.2,44c-4.7-5.5-11.5-8.6-18.7-8.6c-7.2,0-14,3.1-18.7,8.6c-10.4,12.2-30.4,36.9-47.3,65.5
	c-20.7,35-31.3,66-31.3,92.1c0,53.6,43.6,97.2,97.2,97.2s97.2-43.6,97.2-97.2c0-26.1-10.5-57.1-31.3-92.1
	C364.6,81,344.6,56.2,334.2,44z M315.5,274.3c-40.1,0-72.7-32.6-72.7-72.7c0-21.7,9.4-48.4,27.8-79.6c16-27,35-50.5,44.9-62.1
	c9.9,11.6,28.9,35.1,44.9,62.1c18.5,31.2,27.8,58,27.8,79.6C388.2,241.7,355.6,274.3,315.5,274.3z"/>
<path class="st0" d="M315.5,227.5c-14.3,0-25.9-11.6-25.9-25.9c0-6.8-5.5-12.3-12.3-12.3s-12.3,5.5-12.3,12.3
	c0,27.8,22.6,50.4,50.4,50.4c6.8,0,12.3-5.5,12.3-12.3S322.3,227.5,315.5,227.5z"/>
<path class="st0" d="M156.4,171.1c30.4,0,55.2-24.8,55.2-55.2c0-30.4-24.8-55.2-55.2-55.2c-30.4,0-55.2,24.8-55.2,55.2
	C101.2,146.3,125.9,171.1,156.4,171.1z M156.4,85.2c16.9,0,30.7,13.8,30.7,30.7c0,16.9-13.8,30.7-30.7,30.7s-30.7-13.8-30.7-30.7
	C125.7,99,139.5,85.2,156.4,85.2z"/>
<path class="st0" d="M505.2,230.8c0-16.9-13.8-30.7-30.7-30.7c-16.9,0-30.7,13.8-30.7,30.7s13.8,30.7,30.7,30.7
	C491.4,261.4,505.2,247.7,505.2,230.8z M474.5,236.9c-3.4,0-6.1-2.8-6.1-6.1c0-3.4,2.8-6.1,6.1-6.1c3.4,0,6.1,2.8,6.1,6.1
	C480.7,234.2,477.9,236.9,474.5,236.9z"/>
<path class="st0" d="M467.7,45.9c0-22-17.9-39.9-39.9-39.9c-22,0-39.9,17.9-39.9,39.9s17.9,39.9,39.9,39.9
	C449.8,85.8,467.7,67.9,467.7,45.9z M412.5,45.9c0-8.5,6.9-15.3,15.3-15.3c8.5,0,15.3,6.9,15.3,15.3c0,8.5-6.9,15.3-15.3,15.3
	C419.4,61.2,412.5,54.4,412.5,45.9z"/>
</svg>
