<?xml version="1.0" encoding="utf-8"?>
<!-- Generator: Adobe Illustrator 25.2.0, SVG Export Plug-In . SVG Version: 6.00 Build 0)  -->
<svg version="1.1" id="Outline" xmlns="http://www.w3.org/2000/svg" xmlns:xlink="http://www.w3.org/1999/xlink" x="0px" y="0px"
	 viewBox="0 0 512 512" style="enable-background:new 0 0 512 512;" xml:space="preserve">
<style type="text/css">
	.st0{fill:#F68B1E;}
</style>
<path class="st0" d="M402.3,86.3c-20-22.1-42.7-39.7-67.5-52.2c-27-13.7-55.2-20.6-83.7-20.6s-56.7,6.9-83.7,20.6
	c-24.8,12.5-47.5,30.1-67.5,52.2c-38.9,43-62.1,98.1-62.1,147.3c0,32.2,7.6,59.4,22.8,81.4l-2.5,2.5c-8.1,8.1-12,19.2-10.8,30.5
	l8.8,84.7c0.4,3.5-0.9,7-3.4,9.5l-6.5,6.5c-4.3,4.3-4.3,11.2,0,15.5c2.1,2.1,4.9,3.2,7.7,3.2c2.8,0,5.6-1.1,7.7-3.2l6.5-6.5
	c7.2-7.2,10.7-17.1,9.7-27.2l-2-19.3L69,345.8c-0.5-4.7,1.2-9.4,4.5-12.8l55-55c1.2-1.2,2.9-1.9,4.6-1.9c1.8,0,3.4,0.7,4.6,1.9
	c2.6,2.6,2.6,6.7,0,9.3l-7.5,7.5c0,0,0,0,0,0l-25.5,25.5c-4.3,4.3-4.3,11.2,0,15.5c4.3,4.3,11.2,4.3,15.5,0l25.5-25.5
	c2.6-2.6,6.7-2.6,9.3,0c1.2,1.2,1.9,2.9,1.9,4.6s-0.7,3.4-1.9,4.6l-26.1,26.1v0l-9.6,9.6c-4.3,4.3-4.3,11.2,0,15.5
	c4.3,4.3,11.2,4.3,15.5,0l9.3-9.3c0,0,0,0,0,0l16.2-16.2c1.2-1.2,2.9-1.9,4.6-1.9c1.8,0,3.4,0.7,4.6,1.9c2.6,2.6,2.6,6.7,0,9.3
	l-33.6,33.6c-6,6-8.7,14.5-7.2,22.9l5.8,33.6c1.1,6.3-0.9,12.7-5.4,17.2l-14.8,14.8l-9.7,9.7c-4.3,4.3-4.3,11.2,0,15.5
	c2.1,2.1,4.9,3.2,7.7,3.2c2.8,0,5.6-1.1,7.7-3.2l24.5-24.5c9.5-9.5,13.8-23.1,11.5-36.4l-2.3-13.1c27.5,23,61.3,35.5,97,35.5
	c0,0,0,0,0,0c35.7,0,69.5-12.5,97-35.5l-2.3,13.1c-2.3,13.3,2,26.9,11.5,36.4l24.5,24.5c2.1,2.1,4.9,3.2,7.7,3.2
	c2.8,0,5.6-1.1,7.7-3.2c4.3-4.3,4.3-11.2,0-15.5l-9.7-9.7l-14.8-14.8c-4.5-4.5-6.5-10.9-5.4-17.2l5.8-33.6
	c1.4-8.3-1.3-16.9-7.2-22.9l-33.6-33.6c-2.6-2.6-2.6-6.7,0-9.3c1.2-1.2,2.9-1.9,4.6-1.9s3.4,0.7,4.6,1.9l25.5,25.5
	c4.3,4.3,11.2,4.3,15.5,0c4.3-4.3,4.3-11.2,0-15.5l-9.6-9.6l0,0l-26.1-26.1c-1.2-1.2-1.9-2.9-1.9-4.6s0.7-3.4,1.9-4.6
	c2.6-2.6,6.7-2.6,9.3,0l25.5,25.5c4.3,4.3,11.2,4.3,15.5,0c4.3-4.3,4.3-11.2,0-15.5l-6.7-6.7c0,0,0,0,0,0l-4.1-4.1l-14.7-14.8
	c0,0,0,0,0,0l-7.5-7.5c-1.2-1.2-1.9-2.9-1.9-4.6c0-1.8,0.7-3.4,1.9-4.6c1.2-1.2,2.9-1.9,4.6-1.9c1.8,0,3.4,0.7,4.6,1.9l55,55
	c3.4,3.4,5,8,4.5,12.8l-6.8,65.4l-2,19.3c-1.1,10.1,2.5,20.1,9.7,27.2l6.5,6.5c2.1,2.1,4.9,3.2,7.7,3.2c2.8,0,5.6-1.1,7.7-3.2
	c4.3-4.3,4.3-11.2,0-15.5l-6.5-6.5c-2.5-2.5-3.7-6-3.4-9.5l8.8-84.7c1.2-11.3-2.8-22.5-10.8-30.5l-2.5-2.5
	c15.1-22,22.8-49.2,22.8-81.4C464.3,184.4,441.1,129.3,402.3,86.3z M351.5,260.2c-4.5,1.2-7.9,5.2-8.1,10.1c-1.5,3-2.4,6.2-2.7,9.5
	c-2.9,4.5-8,7.5-13.8,7.5c-9.1,0-16.5-7.4-16.5-16.5c0-6-4.9-10.9-10.9-10.9c-6,0-10.9,4.9-10.9,10.9c0,20.1,15.6,36.7,35.3,38.2
	c-0.4,1.9-0.6,3.9-0.6,5.9c0,3.2,0.5,6.3,1.5,9.2c-2.9,1.4-5.5,3.2-7.8,5.6c-11.1,11.1-11.1,29.2,0,40.3l29.3,29.3
	c-0.1,0.1-0.3,0.3-0.4,0.4c-25.4,26.8-59,41.5-94.8,41.5c-35.8,0-69.4-14.7-94.8-41.5c-0.1-0.1-0.3-0.3-0.4-0.4l29.3-29.3
	c11.1-11.1,11.1-29.2,0-40.3c-2.3-2.3-5-4.2-7.8-5.6c1-2.9,1.5-6,1.5-9.2c0-2-0.2-4-0.6-5.9c19.7-1.6,35.3-18.1,35.3-38.2
	c0-6-4.9-10.9-10.9-10.9s-10.9,4.9-10.9,10.9c0,9.1-7.4,16.5-16.5,16.5c-5.8,0-10.9-3-13.8-7.5c-0.3-3.3-1.2-6.5-2.7-9.5
	c-0.2-4.8-3.6-8.9-8.1-10c-5-3.9-11.1-6-17.5-6c-6,0-11.7,1.8-16.5,5.2l0-39.1c0-1.9,0.9-9.2,12.3-22.7c9.2-10.8,22.7-22.7,39-34.3
	c24.4-17.4,53-32.9,83.4-45.5c19.5,6.9,49.8,25.8,80.4,50.3c14.3,11.4,27.7,23.3,37.6,33.4c12.5,12.7,15.4,18.3,15.9,19.6l0,38.3
	C375.3,252.2,361.4,252.5,351.5,260.2z M407.4,280.8l0-60.4c0-5.3-2.2-13.2-18.9-30.8c-10.1-10.7-24.2-23.5-39.7-36.1
	c-10.3-8.4-39.8-31.5-68.3-46.6c7.3-2.5,14.6-4.7,21.9-6.8c5.8-1.6,9.2-7.7,7.5-13.5c-1.6-5.8-7.7-9.2-13.5-7.5
	c-51.3,14.5-101.4,38.1-141.1,66.4c-17.8,12.7-32.7,25.8-43,38c-11.6,13.7-17.5,26.1-17.5,36.9l0,60.4l-18.5,18.5
	c-11.1-17.7-16.6-39.5-16.6-65.6c0-44,21.1-93.5,56.4-132.6c17.9-19.8,39.1-36.2,61.1-47.4c23.9-12.1,48.8-18.2,73.8-18.2
	c25,0,49.9,6.1,73.8,18.2C347,64.7,368.1,81.1,386,101c35.3,39.1,56.4,88.7,56.4,132.6c0,26.2-5.5,47.9-16.6,65.6L407.4,280.8z"/>
<path class="st0" d="M122.3,391.8c0.5,0.7,1,1.5,1.5,2.2l0.5-4.3L122.3,391.8z"/>
<path class="st0" d="M378.4,394c0.5-0.7,1-1.5,1.5-2.2l-2-2.1L378.4,394z"/>
<path class="st0" d="M279.3,347c0,15.5-12.6,28.2-28.2,28.2c-15.5,0-28.2-12.6-28.2-28.2c0-6-4.9-10.9-10.9-10.9
	c-6,0-10.9,4.9-10.9,10.9c0,27.6,22.5,50.1,50.1,50.1s50.1-22.5,50.1-50.1c0-6-4.9-10.9-10.9-10.9S279.3,341,279.3,347z"/>
<path class="st0" d="M365.9,217.2c-12.3-7.1-26.3-12.1-40.5-14.4c-13.3-2.2-25.8-1.8-35,1c-5.8,1.8-9,7.9-7.3,13.7
	c1.8,5.8,7.9,9,13.7,7.3c10.4-3.2,35.4-1.8,58.2,11.4c1.7,1,3.6,1.5,5.5,1.5c3.8,0,7.5-2,9.5-5.5C372.9,227,371.1,220.3,365.9,217.2
	z"/>
<path class="st0" d="M219.1,217.5c1.8-5.8-1.5-11.9-7.3-13.7c-9.3-2.8-21.7-3.2-35-1c-14.2,2.3-28.3,7.3-40.5,14.4
	c-5.2,3-7,9.7-4,15c2,3.5,5.7,5.5,9.5,5.5c1.9,0,3.7-0.5,5.5-1.5c22.8-13.2,47.7-14.6,58.2-11.4
	C211.2,226.6,217.4,223.3,219.1,217.5z"/>
<path class="st0" d="M61.7,52.7c0.5,0.5,1.4,2.8,2.7,10.5c0.9,5.3,5.5,9.1,10.8,9.1c5.3,0,9.9-3.9,10.8-9.1
	c1.3-7.7,2.2-9.9,2.7-10.5c0.5-0.5,2.8-1.4,10.5-2.7c5.3-0.9,9.1-5.5,9.1-10.8s-3.9-9.9-9.1-10.8c-7.7-1.3-9.9-2.2-10.5-2.7
	c-0.5-0.5-1.4-2.8-2.7-10.5c-0.9-5.3-5.5-9.1-10.8-9.1c-5.3,0-9.9,3.9-10.8,9.1c-1.3,7.7-2.2,9.9-2.7,10.5
	c-0.5,0.5-2.8,1.4-10.5,2.7c-5.3,0.9-9.1,5.5-9.1,10.8s3.9,9.9,9.1,10.8C58.9,51.3,61.1,52.2,61.7,52.7z"/>
<ellipse transform="matrix(0.9465 -0.3227 0.3227 0.9465 11.6577 132.2519)" class="st0" cx="404.7" cy="31" rx="13.4" ry="13.4"/>
<path class="st0" d="M494,95.5c-3.5-0.6-5.1-1-5.9-1.3c-0.3-0.8-0.7-2.4-1.3-5.9c-0.9-5.3-5.5-9.1-10.8-9.1c-5.3,0-9.9,3.9-10.8,9.1
	c-0.6,3.5-1,5.1-1.3,5.9c-0.8,0.3-2.4,0.7-5.9,1.3c-5.3,0.9-9.1,5.5-9.1,10.8c0,5.3,3.9,9.9,9.1,10.8c3.5,0.6,5.1,1,5.9,1.3
	c0.3,0.8,0.7,2.4,1.3,5.9c0.9,5.3,5.5,9.1,10.8,9.1c5.3,0,9.9-3.9,10.8-9.1c0.6-3.5,1-5.1,1.3-5.9c0.8-0.3,2.4-0.7,5.9-1.3
	c5.3-0.9,9.1-5.5,9.1-10.8C503.1,101,499.2,96.4,494,95.5z"/>
<circle class="st0" cx="23.5" cy="114.8" r="13.4"/>
</svg>
