<?xml version="1.0" encoding="utf-8"?>
<!-- Generator: Adobe Illustrator 25.2.0, SVG Export Plug-In . SVG Version: 6.00 Build 0)  -->
<svg version="1.1" id="Outline" xmlns="http://www.w3.org/2000/svg" xmlns:xlink="http://www.w3.org/1999/xlink" x="0px" y="0px"
	 viewBox="0 0 512 512" style="enable-background:new 0 0 512 512;" xml:space="preserve">
<style type="text/css">
	.st0{fill:none;stroke:#F68B1E;stroke-width:25;stroke-linecap:round;stroke-linejoin:round;stroke-miterlimit:10;}
	.st1{fill:#F68B1E;}
</style>
<g id="contact_form">
	<g id="_x3C_Grupo_x3E__77_">
		<g>
			<path class="st0" d="M279.5,392.7h-245c-8.5,0-15.3-6.9-15.3-15.3V32.9c0-8.5,6.9-15.3,15.3-15.3h444.1c8.5,0,15.3,6.9,15.3,15.3
				v321.6"/>
			<line class="st0" x1="19.2" y1="101.8" x2="493.9" y2="101.8"/>
		</g>
		<line class="st0" x1="111.1" y1="186" x2="402" y2="186"/>
		<line class="st0" x1="111.1" y1="239.6" x2="241.3" y2="239.6"/>
	</g>
	<g>
		<path class="st0" d="M279.5,239.6l19.7,66.1l141.9,175.5c10.4,12.9,29.3,14.9,42.1,4.2l0,0c12.6-10.5,14.3-29.1,3.8-41.7
			L345.2,275L279.5,239.6z"/>
		<line class="st0" x1="425" y1="454" x2="440.3" y2="438.6"/>
	</g>
</g>
<g>
	<circle class="st1" cx="69" cy="59.7" r="11.5"/>
	<circle class="st1" cx="114.9" cy="59.7" r="11.5"/>
	<circle class="st1" cx="160.9" cy="59.7" r="11.5"/>
</g>
</svg>
