<?xml version="1.0" encoding="UTF-8"?><svg id="Layer_2" xmlns="http://www.w3.org/2000/svg" viewBox="0 0 155.91 45.5"><defs><style>.cls-1,.cls-2{fill:#f68b1f;fill-rule:evenodd;}.cls-2{opacity:.5;}</style></defs><g id="Layer_1-2"><path class="cls-1" d="m25.56,26.86c0,2.63-1.12,5.09-3.34,7.38-2.39,2.44-5.18,3.67-8.38,3.68-5.04.09-8.94.01-11.75.09-.45.02-1.08.06-1.89.12.45-.2.84-.42,1.15-.68.77-.6,1.16-1.28,1.18-2.03.11-4.26.16-7.57.15-9.95,0-1.85-.04-4.67-.15-8.46-.02-.93-.86-1.7-2.53-2.31,2.81.06,5.02.07,6.61.02,5.5.24,9.14-.88,14.16,2.54,3.19,2.27,4.78,5.47,4.78,9.59h0Zm99.69,9v-.04c.19-4.47.28-7.97.26-10.51-.09-3.86-.18-6.65-.26-8.34-.02-.5-.42-1.03-1.21-1.57-.34-.24-.74-.47-1.21-.7,3.67.03,7.3-.04,10.96-.04s5.71,1.42,6.6,4.52c.14.48.21.97.21,1.45,0,1.51-.7,2.81-2.1,3.89-.99.77-1.94,1.24-2.82,1.41,4.2,7.26,7.3,11.92,9.29,13.99,3.27,3.44,6.61,5.16,10.03,5.16.36,0,.66-.02.92-.06-.65.32-1.63.48-2.95.48-2.03,0-4.01-.38-5.94-1.15-5.12-1.98-9.62-9.84-12.36-14.55-1.35-2.35-2.54-3.53-3.58-3.53h-2.5l.1,9.41c.02.77.39,1.39,1.11,1.86.32.2.68.36,1.1.47-.96.02-12.7.06-13.53.04-.13-.02-.2-.02-.2-.09,0-.16.12-.25.33-.28.1-.01.18-.07.23-.17.06-.11.06-.24,0-.38l-2-5.04c-.04-.12-.13-.18-.27-.18h-6.11c-.12,0-.19.06-.23.18-.44,1.09-1.77,3.84-1.77,4.89,0,.47.34.53,1.04.53h.37c.26,0,.39.09.39.28,0,.17-.14.25-.42.25h-9.32c-.3,0-.51-.05-.63-.11-.09-.04-.14-.1-.14-.18,0-.12.09-.2.29-.26.15-.05.19-.41.12-1.06l-1.45-10.85h-.08l-5.58,11.03c-.3.61-.5.99-.62,1.16-.15.17-.29.26-.42.26-.24,0-.59-.42-1.04-1.26l-2.48-4.49c-.27-.53-.44-.87-.5-1.02l-1.05-2.22c-.54-1.12-1.05-2.17-1.54-3.15h-.09l-1.23,9.62c-.06.43-.09.83-.09,1.18,0,.39.26.64.79.74.4.08.7.12.93.12.27,0,.4.08.4.24,0,.19-.21.29-.62.29l-3.24-.08c-.09.02-.19.03-.32.03l-1.74.05c-.32,0-.48.08-.48-.11,0-.16.13-.42.42-.42h.32l.47-.06c.31-.04.57-.26.76-.68.13-.29.23-.71.3-1.23l2.57-15.85c.06-.43.22-.64.5-.64.24,0,.51.27.79.8l6.95,13.62,6.97-13.81c.21-.41.44-.62.68-.62.12,0,.23.07.35.22.13.13.2.33.24.59l2.36,15.13c1.57,9.29,7.64-9.3,10.07-14.96.27-.68.54-1,.78-1s.5.26.76.8l4.96,11.28c.73,1.71,1.29,2.98,1.66,3.83.45,1,.88,1.71,1.3,2.15,1.1,1.16,3.37.43,3.45-1.2h0Zm7.15-10.57c1.37-.18,2.62-.67,3.62-1.63.93-.9,1.35-2.02,1.28-3.35-.09-1.59-.94-2.82-2.55-3.66-.97-.53-1.94-.83-2.88-.91-2.19-.16-3.28.06-3.28.68-.12,4.5-.12,7.46,0,8.87,2.15.04,3.43.04,3.82,0h0Zm-17.51,5.23h0c.12,0,.17-.06.13-.16l-2.48-6.46s0-.03-.03-.06c-.03-.06-.05-.08-.07-.08-.04,0-.07.03-.09.08-.02.02-.03.04-.03.06l-2.53,6.43c-.06.13-.03.18.08.18h5.02Zm-52.45-4.02v3.16c0,1.69.22,3.11.68,4.25.37.94.94,1.73,1.68,2.39.83.73,1.88,1.22,3.15,1.47.47.11.98.17,1.54.22.21.02.43.03.67.03h.57c1,0,1.89-.11,2.68-.34,1.05-.3,1.98-.79,2.81-1.47.98-.8,1.66-1.93,2.06-3.4.15-.61.27-1.29.33-2.06.06-.59.09-1.3.09-2.11v-2.15c0-1.69,0-3.12.03-3.95l-.06-1.54c.06-.81.46-1.26,1.02-1.35.34-.06.59-.09.78-.09.29,0,.43-.09.43-.26,0-.16-.18-.24-.53-.24l-3.33.06-2.81-.06c-.34,0-.51.08-.51.24,0,.17.14.26.43.26.17,0,.33,0,.5.03l.45.06c.68.2,1.04.65,1.09,1.35l.03,1.54c.02.83.03,2.26.03,3.95v2.62c0,.79,0,1.41-.03,1.86-.04.63-.1,1.19-.19,1.66-.21,1.13-.64,1.99-1.3,2.6-.47.47-1.04.82-1.71,1.04-.55.19-1.13.29-1.76.29h-.36c-.12,0-.24-.01-.4-.03-.26-.02-.53-.06-.79-.12-.65-.16-1.23-.44-1.74-.85-.68-.54-1.17-1.22-1.47-2.05-.34-.96-.51-2.3-.51-4.04v-6.93l.06-1.54c.06-.81.38-1.26.95-1.35.33-.06.58-.09.77-.09.28,0,.42-.09.42-.26,0-.16-.19-.24-.57-.24l-2.69.06-4.54-.06c-.37,0-.56.08-.56.24,0,.17.14.26.44.26.2,0,.38,0,.57.03l.43.06c.71.2,1.08.65,1.12,1.35.03.26.03,2.21.03,5.49h0Zm-13.76,10.89c-1.53-.43-2.88-1.13-4.02-2.1-1.18-.98-2.05-2.18-2.6-3.6-.43-1.15-.64-2.42-.64-3.8,0-.48.04-.96.11-1.47.22-1.47,1.85-3.92,2.93-4.87.98-.86,2.1-1.51,3.35-1.94,1.4-.47,3.02-.71,4.87-.71.73,0,1.42.03,2.08.08.39.02.96.08,1.7.17l2.61.42c.24.01.37.11.37.29l-.11,1.4c-.02.2-.03.43-.03.71-.02.19-.02.45-.02.77l-.03,1.24c-.03.41-.16.62-.36.62-.18,0-.26-.18-.26-.54-.04-.92-.37-1.7-1.01-2.33-1.02-.98-2.69-1.47-5.01-1.47-2.16,0-3.79.47-4.9,1.41-.88.77-1.52,1.75-1.91,2.96-.31,1-.48,1.66-.48,3.04s.26,2.71.78,3.89c.48,1.04,1.13,1.96,1.97,2.75,1.57,1.43,3.35,2.15,5.33,2.15,2.29,0,3.83-.45,4.61-1.32.49-.55.79-1.11.88-1.69.07-.33.17-.5.33-.5.08,0,.14.05.2.16.05.07.09.17.09.29,0,.2-.06.68-.18,1.44-.13.89-.26,1.52-.38,1.9-.11.34-.34.6-.69.73-.47.19-1.16.33-2.09.43-.78.09-1.65.13-2.59.13-1.86,0-3.49-.21-4.9-.62h0Zm-20.19-14.84c0-.66-.01-1.16-.04-1.54-.03-.7-.41-1.15-1.12-1.35l-.43-.06c-.21-.02-.4-.03-.59-.03-.31,0-.45-.09-.45-.26,0-.16.2-.24.59-.24l3.04.06h7.79c.12,0,.23,0,.36-.03l.73-.12s.11-.02.22-.06c.1-.04.16-.06.2-.06.12,0,.17.08.17.23l-.05.3c0,.06,0,.11-.03.14-.05.34-.09.73-.12,1.18l-.12,1.29c0,.18,0,.3-.02.36l-.03.11c-.02.06-.04.1-.06.12-.05.12-.12.17-.22.17-.13,0-.2-.11-.2-.32,0-.15,0-.28-.02-.42-.04-.19-.09-.36-.15-.5-.12-.27-.27-.46-.45-.59-.26-.15-.68-.26-1.27-.32-.1-.02-.34-.03-.74-.03l-1.27-.06-2.08-.03c-.11,0-.17.08-.17.23v6.11c0,.18.06.28.17.28h2.28c.57,0,1.03-.02,1.39-.04.44,0,.75-.01.89-.03.64-.06,1.05-.18,1.24-.38l.23-.24c.08-.06.14-.09.17-.09.15,0,.22.09.22.28l-.3,2.8-.03.71c0,.14,0,.26-.03.36-.05.14-.14.21-.23.21-.16,0-.24-.07-.24-.21l-.08-.9c-.18-.58-.65-.9-1.45-.98-.11-.03-.36-.03-.73-.03l-1.24-.06-2.1-.03c-.1,0-.15.09-.15.26v5.72c.02.86.29,1.42.79,1.69.46.27,1.36.42,2.72.42.47,0,.88-.02,1.24-.06.5-.04.91-.13,1.21-.28.57-.24.93-.86,1.11-1.86.07-.24.17-.37.31-.37.1,0,.16.06.2.2.02.08.03.21.03.39,0,1.04-.12,1.95-.35,2.76-.13.44-.59.65-1.4.65-1.9,0-3.49-.03-4.76-.09l-3.55-.05-.95.03c-.82.03-1.42.05-1.8.05-.32,0-.49-.08-.49-.26,0-.18.14-.28.41-.28.37,0,.68-.02.93-.08.41-.1.66-.53.76-1.33.06-.47.1-1.21.12-2.21v-11.24h0Zm-5.79,3.39h0c-.18-3.36-1.72-6.02-4.59-8-2.33-1.57-4.86-2.36-7.58-2.36-.28,0-.53,0-.77.03-1.37.12-2.31.27-2.81.42-.83.3-1.24.79-1.24,1.47-.06,1.57-.12,4.18-.18,7.82,0,2.29.05,5.45.15,9.48.02,1.34,1.4,2.06,4.16,2.18,3.76.16,6.89-.87,9.41-3.1,2.46-2.18,3.61-4.82,3.44-7.94Z"/><path class="cls-2" d="m153.35,16.05c.58-2.18-1.78-4.71-5.29-5.65-3.5-.94-6.82.07-7.4,2.25-.58,2.18,1.78,4.71,5.29,5.65,3.51.94,6.82-.07,7.4-2.25Z"/><path class="cls-2" d="m141.69,0c-1.76.06-3.17,3.53-3.16,7.75s1.44,7.59,3.2,7.53c1.76-.06,3.17-3.53,3.16-7.75-.01-4.22-1.44-7.59-3.2-7.53Z"/><path class="cls-2" d="m138.68,5.39c-.1.75-.15,1.54-.15,2.37,0,3.71,1.12,6.76,2.57,7.4.11.01.21,0,.3-.04.79-.39.64-2.92-.33-5.66-.7-1.97-1.63-3.51-2.39-4.07Z"/><path class="cls-2" d="m155.84,9.79c-.57-2.77-4.64-4.27-9.1-3.36-4.46.92-7.61,3.91-7.04,6.68.57,2.77,4.64,4.27,9.1,3.36,4.46-.92,7.61-3.91,7.04-6.68Z"/><path class="cls-2" d="m144.88,6.96c-3.44,1.26-5.67,3.78-5.19,6.15.14.69.51,1.31,1.04,1.83.31.24.65.36,1,.35,1.76-.06,3.17-3.53,3.16-7.75,0-.19,0-.38-.01-.57Z"/><path class="cls-2" d="m141.17,15.18c.18.07.37.11.56.1,1.39-.05,2.56-2.22,2.99-5.2-2.07.18-3.68,1.11-4.07,2.57-.22.83-.02,1.71.52,2.54Z"/><path class="cls-2" d="m137.9,5.21c-.79.39-.64,2.92.33,5.66.97,2.73,2.39,4.64,3.18,4.25.79-.39.64-2.92-.33-5.66-.97-2.74-2.39-4.64-3.18-4.25Z"/></g></svg>